# xmcd
#
# Track frame offsets: 
#        150
#        12692
#        25960
#        38885
#        49702
#        59800
#        72117
#        85992
#        97687
#        108157
#        120712
#        134527
#        145625
#        155767
#        169437
#        181215
#        195777
#        208090
#        217907
#        227652
#        240617
#        248892
#        261545
#        270500
#        283375
#
# Disc length: 3926 seconds
#
# Revision: 1
# Processed by: cddbd v1.5.2PL0 Copyright (c) Steve Scherf et al.
# Submitted via: ExactAudioCopy v0.99pb4
#
DISCID=730f5419
DTITLE=Various Artist - Great R&B Duets
DYEAR=2000
DGENRE=R&B/Soul
TTITLE0=Brook Benton and Dinah Washington - Baby (You've Got What It Tak
TTITLE0=es)
TTITLE1=Mickey and Sylvia - Love Is Strange
TTITLE2=Joe and Ann - Gee Baby
TTITLE3=Shirley and Lee - Let The Good Times Roll
TTITLE4=Johnnie and Joe - Over The Mountain, Across The Sea
TTITLE5=Gene and Eunice - Ko Ko Mo (I Love You So)
TTITLE6=Betty and Dupree - I Hope You're Satisfied
TTITLE7=Robert and Johnny - You're Mine
TTITLE8=Billy and Lillie - Creepin', Crawlin', Cryin'
TTITLE9=Marvin and Johnny - Cherry Pie
TTITLE10=Ike and Tina Turner - It's Gonna Work Out Fine
TTITLE11=Huey and Jerry - I Think You Jiving Me
TTITLE12=Don and Dewey - I'm Leaving It (All) Up To You
TTITLE13=Mickey and Sylvia - Bewildered
TTITLE14=Bob and Earl - Chains Of Love
TTITLE15=The Teen Queens - Eddie My Love
TTITLE16=Tarheel Slim and Little Ann - It's Too Late
TTITLE17=Oscar McLollie and Annette - Let's Get Together
TTITLE18=Ruth and Al - Real Gone Party
TTITLE19=Marvin and Johnny - Tick Tock
TTITLE20=Gene and Eunice - Poco-Loco
TTITLE21=Willy and Ruth - Love Me
TTITLE22=Robert and Johnny - Dream Girl
TTITLE23=Etta and Harvey - If I Can't Have You
TTITLE24=Brook Benton and Dinah Washington - A Rockin' Good Way (To Mess
TTITLE24=Around And Fall In Love)
EXTD=
EXTT0=
EXTT1=
EXTT2=
EXTT3=
EXTT4=
EXTT5=
EXTT6=
EXTT7=
EXTT8=
EXTT9=
EXTT10=
EXTT11=
EXTT12=
EXTT13=
EXTT14=
EXTT15=
EXTT16=
EXTT17=
EXTT18=
EXTT19=
EXTT20=
EXTT21=
EXTT22=
EXTT23=
EXTT24=
PLAYORDER=
